<svg xmlns="http://www.w3.org/2000/svg" style="width: 299px; height: 2589px;" viewBox="0 0 299 2589" preserveAspectRatio="none meet" width="299px" height="2589px" contentScriptType="application/ecmascript" contentStyleType="text/css" zoomAndPan="magnify" version="1.1"><defs><filter id="fi49s3k4ra0j5" x="-1" y="-1" width="300%" height="300%"><feGaussianBlur result="blurOut" stdDeviation="2" /><feColorMatrix result="blurOut2" in="blurOut" type="matrix" values="0 0 0 0 0 0 0 0 0 0 0 0 0 0 0 0 0 0 0.4 0" /><feOffset result="blurOut3" in="blurOut2" dx="4" dy="4" /><feBlend in="SourceGraphic" in2="blurOut3" mode="normal" /></filter></defs><g><ellipse filter="url(&quot;#fi49s3k4ra0j5&quot;)" style="stroke: none; stroke-width: 1;" fill="#000000" cx="204" cy="18" rx="10" ry="10" /><rect filter="url(&quot;#fi49s3k4ra0j5&quot;)" style="stroke: #a80036; stroke-width: 1.5;" fill="#fefece" x="180.5" y="68" width="47" height="35.0938" rx="12.5" ry="12.5" /><text font-family="sans-serif" font-size="12" fill="#000000" lengthAdjust="spacingAndGlyphs" textLength="27" x="190.5" y="90.457">0,0,0</text><rect filter="url(&quot;#fi49s3k4ra0j5&quot;)" style="stroke: #a80036; stroke-width: 1.5;" fill="#fefece" x="180.5" y="143" width="47" height="35.0938" rx="12.5" ry="12.5" /><text font-family="sans-serif" font-size="12" fill="#000000" lengthAdjust="spacingAndGlyphs" textLength="27" x="190.5" y="165.457">1,0,0</text><rect filter="url(&quot;#fi49s3k4ra0j5&quot;)" style="stroke: #a80036; stroke-width: 1.5;" fill="#fefece" x="197.5" y="2543" width="47" height="35.0938" rx="12.5" ry="12.5" /><text font-family="sans-serif" font-size="12" fill="#000000" lengthAdjust="spacingAndGlyphs" textLength="27" x="207.5" y="2565.457">0,1,0</text><rect filter="url(&quot;#fi49s3k4ra0j5&quot;)" style="stroke: #a80036; stroke-width: 1.5;" fill="#fefece" x="180.5" y="218" width="47" height="35.0938" rx="12.5" ry="12.5" /><text font-family="sans-serif" font-size="12" fill="#000000" lengthAdjust="spacingAndGlyphs" textLength="27" x="190.5" y="240.457">2,0,0</text><rect filter="url(&quot;#fi49s3k4ra0j5&quot;)" style="stroke: #a80036; stroke-width: 1.5;" fill="#fefece" x="130.5" y="2468" width="47" height="35.0938" rx="12.5" ry="12.5" /><text font-family="sans-serif" font-size="12" fill="#000000" lengthAdjust="spacingAndGlyphs" textLength="27" x="140.5" y="2490.457">0,1,1</text><rect filter="url(&quot;#fi49s3k4ra0j5&quot;)" style="stroke: #a80036; stroke-width: 1.5;" fill="#fefece" x="180.5" y="293" width="47" height="35.0938" rx="12.5" ry="12.5" /><text font-family="sans-serif" font-size="12" fill="#000000" lengthAdjust="spacingAndGlyphs" textLength="27" x="190.5" y="315.457">3,0,0</text><rect filter="url(&quot;#fi49s3k4ra0j5&quot;)" style="stroke: #a80036; stroke-width: 1.5;" fill="#fefece" x="130.5" y="2393" width="47" height="35.0938" rx="12.5" ry="12.5" /><text font-family="sans-serif" font-size="12" fill="#000000" lengthAdjust="spacingAndGlyphs" textLength="27" x="140.5" y="2415.457">0,1,2</text><rect filter="url(&quot;#fi49s3k4ra0j5&quot;)" style="stroke: #a80036; stroke-width: 1.5;" fill="#fefece" x="75.5" y="2543" width="47" height="35.0938" rx="12.5" ry="12.5" /><text font-family="sans-serif" font-size="12" fill="#000000" lengthAdjust="spacingAndGlyphs" textLength="27" x="85.5" y="2565.457">0,0,1</text><rect filter="url(&quot;#fi49s3k4ra0j5&quot;)" style="stroke: #a80036; stroke-width: 1.5;" fill="#fefece" x="180.5" y="368" width="47" height="35.0938" rx="12.5" ry="12.5" /><text font-family="sans-serif" font-size="12" fill="#000000" lengthAdjust="spacingAndGlyphs" textLength="27" x="190.5" y="390.457">4,0,0</text><rect filter="url(&quot;#fi49s3k4ra0j5&quot;)" style="stroke: #a80036; stroke-width: 1.5;" fill="#fefece" x="179.5" y="2168" width="47" height="35.0938" rx="12.5" ry="12.5" /><text font-family="sans-serif" font-size="12" fill="#000000" lengthAdjust="spacingAndGlyphs" textLength="27" x="189.5" y="2190.457">0,1,3</text><rect filter="url(&quot;#fi49s3k4ra0j5&quot;)" style="stroke: #a80036; stroke-width: 1.5;" fill="#fefece" x="124.5" y="2318" width="47" height="35.0938" rx="12.5" ry="12.5" /><text font-family="sans-serif" font-size="12" fill="#000000" lengthAdjust="spacingAndGlyphs" textLength="27" x="134.5" y="2340.457">0,0,2</text><rect filter="url(&quot;#fi49s3k4ra0j5&quot;)" style="stroke: #a80036; stroke-width: 1.5;" fill="#fefece" x="180.5" y="443" width="47" height="35.0938" rx="12.5" ry="12.5" /><text font-family="sans-serif" font-size="12" fill="#000000" lengthAdjust="spacingAndGlyphs" textLength="27" x="190.5" y="465.457">5,0,0</text><rect filter="url(&quot;#fi49s3k4ra0j5&quot;)" style="stroke: #a80036; stroke-width: 1.5;" fill="#fefece" x="179.5" y="2093" width="47" height="35.0938" rx="12.5" ry="12.5" /><text font-family="sans-serif" font-size="12" fill="#000000" lengthAdjust="spacingAndGlyphs" textLength="27" x="189.5" y="2115.457">0,1,4</text><rect filter="url(&quot;#fi49s3k4ra0j5&quot;)" style="stroke: #a80036; stroke-width: 1.5;" fill="#fefece" x="124.5" y="2243" width="47" height="35.0938" rx="12.5" ry="12.5" /><text font-family="sans-serif" font-size="12" fill="#000000" lengthAdjust="spacingAndGlyphs" textLength="27" x="134.5" y="2265.457">0,0,3</text><rect filter="url(&quot;#fi49s3k4ra0j5&quot;)" style="stroke: #a80036; stroke-width: 1.5;" fill="#fefece" x="60.5" y="668" width="47" height="35.0938" rx="12.5" ry="12.5" /><text font-family="sans-serif" font-size="12" fill="#000000" lengthAdjust="spacingAndGlyphs" textLength="27" x="70.5" y="690.457">5,0,1</text><rect filter="url(&quot;#fi49s3k4ra0j5&quot;)" style="stroke: #a80036; stroke-width: 1.5;" fill="#fefece" x="180.5" y="518" width="47" height="35.0938" rx="12.5" ry="12.5" /><text font-family="sans-serif" font-size="12" fill="#000000" lengthAdjust="spacingAndGlyphs" textLength="27" x="190.5" y="540.457">6,0,0</text><rect filter="url(&quot;#fi49s3k4ra0j5&quot;)" style="stroke: #a80036; stroke-width: 1.5;" fill="#fefece" x="179.5" y="2018" width="47" height="35.0938" rx="12.5" ry="12.5" /><text font-family="sans-serif" font-size="12" fill="#000000" lengthAdjust="spacingAndGlyphs" textLength="27" x="189.5" y="2040.457">0,0,4</text><rect filter="url(&quot;#fi49s3k4ra0j5&quot;)" style="stroke: #a80036; stroke-width: 1.5;" fill="#fefece" x="126.5" y="1343" width="47" height="35.0938" rx="12.5" ry="12.5" /><text font-family="sans-serif" font-size="12" fill="#000000" lengthAdjust="spacingAndGlyphs" textLength="27" x="136.5" y="1365.457">5,0,2</text><rect filter="url(&quot;#fi49s3k4ra0j5&quot;)" style="stroke: #a80036; stroke-width: 1.5;" fill="#fefece" x="45.5" y="818" width="47" height="35.0938" rx="12.5" ry="12.5" /><text font-family="sans-serif" font-size="12" fill="#000000" lengthAdjust="spacingAndGlyphs" textLength="27" x="55.5" y="840.457">4,0,1</text><rect filter="url(&quot;#fi49s3k4ra0j5&quot;)" style="stroke: #a80036; stroke-width: 1.5;" fill="#fefece" x="180.5" y="593" width="47" height="35.0938" rx="12.5" ry="12.5" /><text font-family="sans-serif" font-size="12" fill="#000000" lengthAdjust="spacingAndGlyphs" textLength="27" x="190.5" y="615.457">7,0,0</text><rect filter="url(&quot;#fi49s3k4ra0j5&quot;)" style="stroke: #a80036; stroke-width: 1.5;" fill="#fefece" x="113.5" y="593" width="47" height="35.0938" rx="12.5" ry="12.5" /><text font-family="sans-serif" font-size="12" fill="#000000" lengthAdjust="spacingAndGlyphs" textLength="27" x="123.5" y="615.457">6,0,1</text><rect filter="url(&quot;#fi49s3k4ra0j5&quot;)" style="stroke: #a80036; stroke-width: 1.5;" fill="#fefece" x="126.5" y="1418" width="47" height="35.0938" rx="12.5" ry="12.5" /><text font-family="sans-serif" font-size="12" fill="#000000" lengthAdjust="spacingAndGlyphs" textLength="27" x="136.5" y="1440.457">5,0,3</text><rect filter="url(&quot;#fi49s3k4ra0j5&quot;)" style="stroke: #a80036; stroke-width: 1.5;" fill="#fefece" x="43.5" y="893" width="47" height="35.0938" rx="12.5" ry="12.5" /><text font-family="sans-serif" font-size="12" fill="#000000" lengthAdjust="spacingAndGlyphs" textLength="27" x="53.5" y="915.457">3,0,1</text><rect filter="url(&quot;#fi49s3k4ra0j5&quot;)" style="stroke: #a80036; stroke-width: 1.5;" fill="#fefece" x="180.5" y="668" width="47" height="35.0938" rx="12.5" ry="12.5" /><text font-family="sans-serif" font-size="12" fill="#000000" lengthAdjust="spacingAndGlyphs" textLength="27" x="190.5" y="690.457">8,0,0</text><rect filter="url(&quot;#fi49s3k4ra0j5&quot;)" style="stroke: #a80036; stroke-width: 1.5;" fill="#fefece" x="140.5" y="1493" width="47" height="35.0938" rx="12.5" ry="12.5" /><text font-family="sans-serif" font-size="12" fill="#000000" lengthAdjust="spacingAndGlyphs" textLength="27" x="150.5" y="1515.457">5,0,4</text><rect filter="url(&quot;#fi49s3k4ra0j5&quot;)" style="stroke: #a80036; stroke-width: 1.5;" fill="#fefece" x="79.5" y="1568" width="47" height="35.0938" rx="12.5" ry="12.5" /><text font-family="sans-serif" font-size="12" fill="#000000" lengthAdjust="spacingAndGlyphs" textLength="27" x="89.5" y="1590.457">4,0,3</text><rect filter="url(&quot;#fi49s3k4ra0j5&quot;)" style="stroke: #a80036; stroke-width: 1.5;" fill="#fefece" x="39.5" y="968" width="47" height="35.0938" rx="12.5" ry="12.5" /><text font-family="sans-serif" font-size="12" fill="#000000" lengthAdjust="spacingAndGlyphs" textLength="27" x="49.5" y="990.457">2,0,1</text><rect filter="url(&quot;#fi49s3k4ra0j5&quot;)" style="stroke: #a80036; stroke-width: 1.5;" fill="#fefece" x="180.5" y="743" width="47" height="35.0938" rx="12.5" ry="12.5" /><text font-family="sans-serif" font-size="12" fill="#000000" lengthAdjust="spacingAndGlyphs" textLength="27" x="190.5" y="765.457">9,0,0</text><rect filter="url(&quot;#fi49s3k4ra0j5&quot;)" style="stroke: #a80036; stroke-width: 1.5;" fill="#fefece" x="146.5" y="1568" width="47" height="35.0938" rx="12.5" ry="12.5" /><text font-family="sans-serif" font-size="12" fill="#000000" lengthAdjust="spacingAndGlyphs" textLength="27" x="156.5" y="1590.457">5,0,5</text><rect filter="url(&quot;#fi49s3k4ra0j5&quot;)" style="stroke: #a80036; stroke-width: 1.5;" fill="#fefece" x="79.5" y="1643" width="47" height="35.0938" rx="12.5" ry="12.5" /><text font-family="sans-serif" font-size="12" fill="#000000" lengthAdjust="spacingAndGlyphs" textLength="27" x="89.5" y="1665.457">3,0,3</text><rect filter="url(&quot;#fi49s3k4ra0j5&quot;)" style="stroke: #a80036; stroke-width: 1.5;" fill="#fefece" x="38.5" y="1043" width="47" height="35.0938" rx="12.5" ry="12.5" /><text font-family="sans-serif" font-size="12" fill="#000000" lengthAdjust="spacingAndGlyphs" textLength="27" x="48.5" y="1065.457">1,0,1</text><rect filter="url(&quot;#fi49s3k4ra0j5&quot;)" style="stroke: #a80036; stroke-width: 1.5;" fill="#fefece" x="177" y="818" width="54" height="35.0938" rx="12.5" ry="12.5" /><text font-family="sans-serif" font-size="12" fill="#000000" lengthAdjust="spacingAndGlyphs" textLength="34" x="187" y="840.457">10,0,0</text><rect filter="url(&quot;#fi49s3k4ra0j5&quot;)" style="stroke: #a80036; stroke-width: 1.5;" fill="#fefece" x="146.5" y="1643" width="47" height="35.0938" rx="12.5" ry="12.5" /><text font-family="sans-serif" font-size="12" fill="#000000" lengthAdjust="spacingAndGlyphs" textLength="27" x="156.5" y="1665.457">4,0,5</text><rect filter="url(&quot;#fi49s3k4ra0j5&quot;)" style="stroke: #a80036; stroke-width: 1.5;" fill="#fefece" x="79.5" y="1718" width="47" height="35.0938" rx="12.5" ry="12.5" /><text font-family="sans-serif" font-size="12" fill="#000000" lengthAdjust="spacingAndGlyphs" textLength="27" x="89.5" y="1740.457">2,0,3</text><rect filter="url(&quot;#fi49s3k4ra0j5&quot;)" style="stroke: #a80036; stroke-width: 1.5;" fill="#fefece" x="171" y="893" width="54" height="35.0938" rx="12.5" ry="12.5" /><text font-family="sans-serif" font-size="12" fill="#000000" lengthAdjust="spacingAndGlyphs" textLength="34" x="181" y="915.457">10,0,1</text><rect filter="url(&quot;#fi49s3k4ra0j5&quot;)" style="stroke: #a80036; stroke-width: 1.5;" fill="#fefece" x="146.5" y="1718" width="47" height="35.0938" rx="12.5" ry="12.5" /><text font-family="sans-serif" font-size="12" fill="#000000" lengthAdjust="spacingAndGlyphs" textLength="27" x="156.5" y="1740.457">3,0,5</text><rect filter="url(&quot;#fi49s3k4ra0j5&quot;)" style="stroke: #a80036; stroke-width: 1.5;" fill="#fefece" x="79.5" y="1793" width="47" height="35.0938" rx="12.5" ry="12.5" /><text font-family="sans-serif" font-size="12" fill="#000000" lengthAdjust="spacingAndGlyphs" textLength="27" x="89.5" y="1815.457">1,0,3</text><rect filter="url(&quot;#fi49s3k4ra0j5&quot;)" style="stroke: #a80036; stroke-width: 1.5;" fill="#fefece" x="168" y="968" width="54" height="35.0938" rx="12.5" ry="12.5" /><text font-family="sans-serif" font-size="12" fill="#000000" lengthAdjust="spacingAndGlyphs" textLength="34" x="178" y="990.457">10,0,2</text><rect filter="url(&quot;#fi49s3k4ra0j5&quot;)" style="stroke: #a80036; stroke-width: 1.5;" fill="#fefece" x="146.5" y="1793" width="47" height="35.0938" rx="12.5" ry="12.5" /><text font-family="sans-serif" font-size="12" fill="#000000" lengthAdjust="spacingAndGlyphs" textLength="27" x="156.5" y="1815.457">2,0,5</text><rect filter="url(&quot;#fi49s3k4ra0j5&quot;)" style="stroke: #a80036; stroke-width: 1.5;" fill="#fefece" x="171.5" y="1043" width="47" height="35.0938" rx="12.5" ry="12.5" /><text font-family="sans-serif" font-size="12" fill="#000000" lengthAdjust="spacingAndGlyphs" textLength="27" x="181.5" y="1065.457">9,0,2</text><rect filter="url(&quot;#fi49s3k4ra0j5&quot;)" style="stroke: #a80036; stroke-width: 1.5;" fill="#fefece" x="133.5" y="1868" width="47" height="35.0938" rx="12.5" ry="12.5" /><text font-family="sans-serif" font-size="12" fill="#000000" lengthAdjust="spacingAndGlyphs" textLength="27" x="143.5" y="1890.457">1,0,5</text><rect filter="url(&quot;#fi49s3k4ra0j5&quot;)" style="stroke: #a80036; stroke-width: 1.5;" fill="#fefece" x="171.5" y="1118" width="47" height="35.0938" rx="12.5" ry="12.5" /><text font-family="sans-serif" font-size="12" fill="#000000" lengthAdjust="spacingAndGlyphs" textLength="27" x="181.5" y="1140.457">8,0,2</text><rect filter="url(&quot;#fi49s3k4ra0j5&quot;)" style="stroke: #a80036; stroke-width: 1.5;" fill="#fefece" x="121.5" y="1943" width="47" height="35.0938" rx="12.5" ry="12.5" /><text font-family="sans-serif" font-size="12" fill="#000000" lengthAdjust="spacingAndGlyphs" textLength="27" x="131.5" y="1965.457">1,0,4</text><rect filter="url(&quot;#fi49s3k4ra0j5&quot;)" style="stroke: #a80036; stroke-width: 1.5;" fill="#fefece" x="188.5" y="1943" width="47" height="35.0938" rx="12.5" ry="12.5" /><text font-family="sans-serif" font-size="12" fill="#000000" lengthAdjust="spacingAndGlyphs" textLength="27" x="198.5" y="1965.457">0,0,5</text><rect filter="url(&quot;#fi49s3k4ra0j5&quot;)" style="stroke: #a80036; stroke-width: 1.5;" fill="#fefece" x="170.5" y="1193" width="47" height="35.0938" rx="12.5" ry="12.5" /><text font-family="sans-serif" font-size="12" fill="#000000" lengthAdjust="spacingAndGlyphs" textLength="27" x="180.5" y="1215.457">7,0,2</text><rect filter="url(&quot;#fi49s3k4ra0j5&quot;)" style="stroke: #a80036; stroke-width: 1.5;" fill="#fefece" x="169.5" y="1268" width="47" height="35.0938" rx="12.5" ry="12.5" /><text font-family="sans-serif" font-size="12" fill="#000000" lengthAdjust="spacingAndGlyphs" textLength="27" x="179.5" y="1290.457">6,0,2</text><!--link start to 0,0,0--><path id="start-0,0,0" style="stroke: #a80036; stroke-width: 1;" fill="none" d="M 204 28.11 C 204 37.01 204 50.9 204 62.67" /><polygon style="stroke: #a80036; stroke-width: 1;" fill="#a80036" points="204,67.9 208,58.9 204,62.9 200,58.9 204,67.9" /><!--link 0,0,0 to 1,0,0--><path id="0,0,0-1,0,0" style="stroke: #a80036; stroke-width: 1;" fill="none" d="M 197.599 103.06 C 196.346 113.26 196.164 126.45 197.054 137.51" /><polygon style="stroke: #a80036; stroke-width: 1;" fill="#a80036" points="197.576,142.75 200.656,133.395 197.076,137.775 192.696,134.195 197.576,142.75" /><!--link 1,0,0 to 0,0,0--><path id="1,0,0-0,0,0" style="stroke: #a80036; stroke-width: 1;" fill="none" d="M 210.424 142.75 C 211.663 132.52 211.832 119.32 210.93 108.29" /><polygon style="stroke: #a80036; stroke-width: 1;" fill="#a80036" points="210.401,103.06 207.348,112.424 210.915,108.034 215.305,111.601 210.401,103.06" /><!--link 0,0,0 to 0,1,0--><path id="0,0,0-0,1,0" style="stroke: #a80036; stroke-width: 1;" fill="none" d="M 212.366 103.38 C 230.103 129.55 267 182.36 267 234.5 C 267 234.5 267 234.5 267 2411.5 C 267 2459.28 241.148 2510.46 227.711 2538.36" /><polygon style="stroke: #a80036; stroke-width: 1;" fill="#a80036" points="225.51,2542.96 233,2536.56 227.666,2538.45 225.782,2533.11 225.51,2542.96" /><!--link 0,1,0 to 0,0,0--><path id="0,1,0-0,0,0" style="stroke: #a80036; stroke-width: 1;" fill="none" d="M 238.084 2542.96 C 258.07 2516.39 287 2462.05 287 2411.5 C 287 234.5 287 234.5 287 234.5 C 287 184.8 253.481 134.5 228.758 107.23" /><polygon style="stroke: #a80036; stroke-width: 1;" fill="#a80036" points="225.179,103.38 228.37,112.698 228.581,107.045 234.234,107.255 225.179,103.38" /><!--link 1,0,0 to 2,0,0--><path id="1,0,0-2,0,0" style="stroke: #a80036; stroke-width: 1;" fill="none" d="M 197.599 178.06 C 196.346 188.26 196.164 201.45 197.054 212.51" /><polygon style="stroke: #a80036; stroke-width: 1;" fill="#a80036" points="197.576,217.75 200.656,208.395 197.076,212.775 192.696,209.195 197.576,217.75" /><!--link 2,0,0 to 1,0,0--><path id="2,0,0-1,0,0" style="stroke: #a80036; stroke-width: 1;" fill="none" d="M 210.424 217.75 C 211.663 207.52 211.832 194.32 210.93 183.29" /><polygon style="stroke: #a80036; stroke-width: 1;" fill="#a80036" points="210.401,178.06 207.348,187.424 210.915,183.033 215.305,186.601 210.401,178.06" /><!--link 0,1,0 to 0,1,1--><path id="0,1,0-0,1,1" style="stroke: #a80036; stroke-width: 1;" fill="none" d="M 212.049 2542.75 C 203.528 2532.05 190.866 2518.12 179.428 2506.8" /><polygon style="stroke: #a80036; stroke-width: 1;" fill="#a80036" points="175.604,2503.06 179.253,2512.21 179.183,2506.56 184.839,2506.49 175.604,2503.06" /><!--link 0,1,1 to 0,1,0--><path id="0,1,1-0,1,0" style="stroke: #a80036; stroke-width: 1;" fill="none" d="M 162.802 2503.06 C 171.275 2513.72 183.92 2527.65 195.371 2539.01" /><polygon style="stroke: #a80036; stroke-width: 1;" fill="#a80036" points="199.201,2542.75 195.559,2533.6 195.625,2539.25 189.968,2539.32 199.201,2542.75" /><!--link 2,0,0 to 3,0,0--><path id="2,0,0-3,0,0" style="stroke: #a80036; stroke-width: 1;" fill="none" d="M 197.599 253.06 C 196.346 263.26 196.164 276.45 197.054 287.51" /><polygon style="stroke: #a80036; stroke-width: 1;" fill="#a80036" points="197.576,292.75 200.656,283.395 197.076,287.775 192.696,284.195 197.576,292.75" /><!--link 3,0,0 to 2,0,0--><path id="3,0,0-2,0,0" style="stroke: #a80036; stroke-width: 1;" fill="none" d="M 210.424 292.75 C 211.663 282.52 211.832 269.32 210.93 258.29" /><polygon style="stroke: #a80036; stroke-width: 1;" fill="#a80036" points="210.401,253.06 207.348,262.424 210.915,258.034 215.305,261.601 210.401,253.06" /><!--link 0,1,1 to 0,1,2--><path id="0,1,1-0,1,2" style="stroke: #a80036; stroke-width: 1;" fill="none" d="M 160.424 2467.75 C 161.663 2457.52 161.832 2444.32 160.93 2433.29" /><polygon style="stroke: #a80036; stroke-width: 1;" fill="#a80036" points="160.401,2428.06 157.329,2437.42 160.905,2433.04 165.288,2436.62 160.401,2428.06" /><!--link 0,1,2 to 0,1,1--><path id="0,1,2-0,1,1" style="stroke: #a80036; stroke-width: 1;" fill="none" d="M 147.599 2428.06 C 146.346 2438.26 146.164 2451.45 147.054 2462.51" /><polygon style="stroke: #a80036; stroke-width: 1;" fill="#a80036" points="147.576,2467.75 150.664,2458.4 147.08,2462.77 142.704,2459.19 147.576,2467.75" /><!--link 0,1,1 to 0,0,1--><path id="0,1,1-0,0,1" style="stroke: #a80036; stroke-width: 1;" fill="none" d="M 135.119 2503.06 C 125.941 2513.54 115.515 2527.17 108.018 2538.41" /><polygon style="stroke: #a80036; stroke-width: 1;" fill="#a80036" points="105.198,2542.75 113.457,2537.38 107.923,2538.56 106.749,2533.02 105.198,2542.75" /><!--link 0,0,1 to 0,1,1--><path id="0,0,1-0,1,1" style="stroke: #a80036; stroke-width: 1;" fill="none" d="M 118.045 2542.75 C 127.237 2532.24 137.654 2518.6 145.115 2507.39" /><polygon style="stroke: #a80036; stroke-width: 1;" fill="#a80036" points="147.921,2503.06 139.667,2508.44 145.2,2507.26 146.378,2512.79 147.921,2503.06" /><!--link 3,0,0 to 4,0,0--><path id="3,0,0-4,0,0" style="stroke: #a80036; stroke-width: 1;" fill="none" d="M 197.599 328.06 C 196.346 338.26 196.164 351.45 197.054 362.51" /><polygon style="stroke: #a80036; stroke-width: 1;" fill="#a80036" points="197.576,367.75 200.656,358.395 197.076,362.775 192.696,359.195 197.576,367.75" /><!--link 4,0,0 to 3,0,0--><path id="4,0,0-3,0,0" style="stroke: #a80036; stroke-width: 1;" fill="none" d="M 210.424 367.75 C 211.663 357.52 211.832 344.32 210.93 333.29" /><polygon style="stroke: #a80036; stroke-width: 1;" fill="#a80036" points="210.401,328.06 207.348,337.424 210.915,333.034 215.305,336.601 210.401,328.06" /><!--link 0,1,2 to 0,1,3--><path id="0,1,2-0,1,3" style="stroke: #a80036; stroke-width: 1;" fill="none" d="M 163.727 2392.75 C 169.651 2381.79 176.854 2366.97 181 2353 C 195.904 2302.8 200.724 2241.08 202.274 2208.72" /><polygon style="stroke: #a80036; stroke-width: 1;" fill="#a80036" points="202.511,2203.4 198.114,2212.22 202.288,2208.4 206.106,2212.57 202.511,2203.4" /><!--link 0,1,2 to 0,0,2--><path id="0,1,2-0,0,2" style="stroke: #a80036; stroke-width: 1;" fill="none" d="M 159.047 2392.75 C 159.449 2382.42 158.513 2369.08 156.671 2357.99" /><polygon style="stroke: #a80036; stroke-width: 1;" fill="#a80036" points="155.762,2353.06 153.461,2362.64 156.669,2357.98 161.328,2361.19 155.762,2353.06" /><!--link 0,0,2 to 0,1,2--><path id="0,0,2-0,1,2" style="stroke: #a80036; stroke-width: 1;" fill="none" d="M 142.961 2353.06 C 142.542 2363.35 143.464 2376.69 145.296 2387.81" /><polygon style="stroke: #a80036; stroke-width: 1;" fill="#a80036" points="146.199,2392.75 148.514,2383.18 145.299,2387.83 140.644,2384.61 146.199,2392.75" /><!--link 0,0,1 to 0,0,0--><path id="0,0,1-0,0,0" style="stroke: #a80036; stroke-width: 1;" fill="none" d="M 79.7303 2542.98 C 52.4901 2517.67 6 2466.43 6 2411.5 C 6 234.5 6 234.5 6 234.5 C 6 151.14 119.982 109.08 174.984 93.63" /><polygon style="stroke: #a80036; stroke-width: 1;" fill="#a80036" points="180.117,92.22 170.378,90.7556 175.297,93.5488 172.504,98.468 180.117,92.22" /><!--link 4,0,0 to 5,0,0--><path id="4,0,0-5,0,0" style="stroke: #a80036; stroke-width: 1;" fill="none" d="M 197.599 403.06 C 196.346 413.26 196.164 426.45 197.054 437.51" /><polygon style="stroke: #a80036; stroke-width: 1;" fill="#a80036" points="197.576,442.75 200.656,433.395 197.076,437.775 192.696,434.195 197.576,442.75" /><!--link 5,0,0 to 4,0,0--><path id="5,0,0-4,0,0" style="stroke: #a80036; stroke-width: 1;" fill="none" d="M 210.424 442.75 C 211.663 432.52 211.832 419.32 210.93 408.29" /><polygon style="stroke: #a80036; stroke-width: 1;" fill="#a80036" points="210.401,403.06 207.348,412.424 210.915,408.034 215.305,411.601 210.401,403.06" /><!--link 0,1,3 to 0,1,4--><path id="0,1,3-0,1,4" style="stroke: #a80036; stroke-width: 1;" fill="none" d="M 209.424 2167.75 C 210.663 2157.52 210.832 2144.32 209.93 2133.29" /><polygon style="stroke: #a80036; stroke-width: 1;" fill="#a80036" points="209.401,2128.06 206.329,2137.42 209.905,2133.04 214.288,2136.62 209.401,2128.06" /><!--link 0,1,4 to 0,1,3--><path id="0,1,4-0,1,3" style="stroke: #a80036; stroke-width: 1;" fill="none" d="M 196.599 2128.06 C 195.346 2138.26 195.164 2151.45 196.054 2162.51" /><polygon style="stroke: #a80036; stroke-width: 1;" fill="#a80036" points="196.576,2167.75 199.664,2158.4 196.08,2162.77 191.704,2159.19 196.576,2167.75" /><!--link 0,1,3 to 0,0,3--><path id="0,1,3-0,0,3" style="stroke: #a80036; stroke-width: 1;" fill="none" d="M 184.119 2203.06 C 174.941 2213.54 164.515 2227.17 157.018 2238.41" /><polygon style="stroke: #a80036; stroke-width: 1;" fill="#a80036" points="154.198,2242.75 162.457,2237.38 156.923,2238.56 155.75,2233.02 154.198,2242.75" /><!--link 0,0,3 to 0,1,3--><path id="0,0,3-0,1,3" style="stroke: #a80036; stroke-width: 1;" fill="none" d="M 167.045 2242.75 C 176.237 2232.24 186.654 2218.6 194.115 2207.39" /><polygon style="stroke: #a80036; stroke-width: 1;" fill="#a80036" points="196.921,2203.06 188.667,2208.44 194.199,2207.26 195.378,2212.79 196.921,2203.06" /><!--link 0,0,2 to 0,0,1--><path id="0,0,2-0,0,1" style="stroke: #a80036; stroke-width: 1;" fill="none" d="M 137.868 2353.2 C 131.707 2364.13 124.234 2378.96 120 2393 C 104.897 2443.1 100.649 2504.86 99.4592 2537.25" /><polygon style="stroke: #a80036; stroke-width: 1;" fill="#a80036" points="99.2819,2542.57 103.58,2533.71 99.4486,2537.58 95.5842,2533.45 99.2819,2542.57" /><!--link 5,0,0 to 5,0,1--><path id="5,0,0-5,0,1" style="stroke: #a80036; stroke-width: 1;" fill="none" d="M 187.148 478.11 C 164.387 501.55 124.234 546.68 103 593 C 92.6791 615.51 87.911 643.71 85.7433 662.81" /><polygon style="stroke: #a80036; stroke-width: 1;" fill="#a80036" points="85.1984,667.94 90.1274,659.413 85.727,662.968 82.1722,658.568 85.1984,667.94" /><!--link 5,0,0 to 6,0,0--><path id="5,0,0-6,0,0" style="stroke: #a80036; stroke-width: 1;" fill="none" d="M 197.599 478.06 C 196.346 488.26 196.164 501.45 197.054 512.51" /><polygon style="stroke: #a80036; stroke-width: 1;" fill="#a80036" points="197.576,517.75 200.656,508.395 197.076,512.775 192.696,509.195 197.576,517.75" /><!--link 6,0,0 to 5,0,0--><path id="6,0,0-5,0,0" style="stroke: #a80036; stroke-width: 1;" fill="none" d="M 210.424 517.75 C 211.663 507.52 211.832 494.32 210.93 483.29" /><polygon style="stroke: #a80036; stroke-width: 1;" fill="#a80036" points="210.401,478.06 207.348,487.424 210.915,483.034 215.305,486.601 210.401,478.06" /><!--link 0,1,4 to 0,0,4--><path id="0,1,4-0,0,4" style="stroke: #a80036; stroke-width: 1;" fill="none" d="M 209.424 2092.75 C 210.663 2082.52 210.832 2069.32 209.93 2058.29" /><polygon style="stroke: #a80036; stroke-width: 1;" fill="#a80036" points="209.401,2053.06 206.329,2062.42 209.905,2058.04 214.288,2061.62 209.401,2053.06" /><!--link 0,0,4 to 0,1,4--><path id="0,0,4-0,1,4" style="stroke: #a80036; stroke-width: 1;" fill="none" d="M 196.599 2053.06 C 195.346 2063.26 195.164 2076.45 196.054 2087.51" /><polygon style="stroke: #a80036; stroke-width: 1;" fill="#a80036" points="196.576,2092.75 199.664,2083.4 196.08,2087.77 191.704,2084.19 196.576,2092.75" /><!--link 0,0,3 to 0,0,2--><path id="0,0,3-0,0,2" style="stroke: #a80036; stroke-width: 1;" fill="none" d="M 148 2278.06 C 148 2288.26 148 2301.45 148 2312.51" /><polygon style="stroke: #a80036; stroke-width: 1;" fill="#a80036" points="148,2317.75 152,2308.75 148,2312.75 144,2308.75 148,2317.75" /><!--link 5,0,1 to 5,0,2--><path id="5,0,1-5,0,2" style="stroke: #a80036; stroke-width: 1;" fill="none" d="M 94.0261 703.14 C 109.137 729.86 136 784.39 136 834.5 C 136 834.5 136 834.5 136 1211.5 C 136 1256.45 142.48 1308.74 146.622 1337.58" /><polygon style="stroke: #a80036; stroke-width: 1;" fill="#a80036" points="147.367,1342.68 150.013,1333.19 146.639,1337.73 142.098,1334.36 147.367,1342.68" /><!--link 5,0,1 to 4,0,1--><path id="5,0,1-4,0,1" style="stroke: #a80036; stroke-width: 1;" fill="none" d="M 82.3085 703.19 C 79.5964 729.95 74.2734 782.47 71.2458 812.34" /><polygon style="stroke: #a80036; stroke-width: 1;" fill="#a80036" points="70.7084,817.64 75.6127,809.099 71.2226,812.667 67.6551,808.276 70.7084,817.64" /><!--link 6,0,0 to 7,0,0--><path id="6,0,0-7,0,0" style="stroke: #a80036; stroke-width: 1;" fill="none" d="M 197.599 553.06 C 196.346 563.26 196.164 576.45 197.054 587.51" /><polygon style="stroke: #a80036; stroke-width: 1;" fill="#a80036" points="197.576,592.75 200.656,583.395 197.076,587.775 192.696,584.195 197.576,592.75" /><!--link 7,0,0 to 6,0,0--><path id="7,0,0-6,0,0" style="stroke: #a80036; stroke-width: 1;" fill="none" d="M 210.424 592.75 C 211.663 582.52 211.832 569.32 210.93 558.29" /><polygon style="stroke: #a80036; stroke-width: 1;" fill="#a80036" points="210.401,553.06 207.348,562.424 210.915,558.034 215.305,561.601 210.401,553.06" /><!--link 6,0,0 to 6,0,1--><path id="6,0,0-6,0,1" style="stroke: #a80036; stroke-width: 1;" fill="none" d="M 188.797 553.06 C 179.015 563.72 166.23 577.65 155.81 589.01" /><polygon style="stroke: #a80036; stroke-width: 1;" fill="#a80036" points="152.375,592.75 161.411,588.831 155.759,589.069 155.521,583.417 152.375,592.75" /><!--link 0,0,4 to 0,0,3--><path id="0,0,4-0,0,3" style="stroke: #a80036; stroke-width: 1;" fill="none" d="M 190.279 2053.38 C 182.833 2064.15 173.948 2078.72 169 2093 C 151.775 2142.71 148.401 2205.12 147.909 2237.59" /><polygon style="stroke: #a80036; stroke-width: 1;" fill="#a80036" points="147.85,2242.92 151.95,2233.96 147.906,2237.92 143.951,2233.87 147.85,2242.92" /><!--link 5,0,2 to 5,0,3--><path id="5,0,2-5,0,3" style="stroke: #a80036; stroke-width: 1;" fill="none" d="M 150 1378.06 C 150 1388.26 150 1401.45 150 1412.51" /><polygon style="stroke: #a80036; stroke-width: 1;" fill="#a80036" points="150,1417.75 154,1408.75 150,1412.75 146,1408.75 150,1417.75" /><!--link 4,0,1 to 3,0,1--><path id="4,0,1-3,0,1" style="stroke: #a80036; stroke-width: 1;" fill="none" d="M 68.5462 853.06 C 68.2669 863.26 67.9056 876.45 67.6025 887.51" /><polygon style="stroke: #a80036; stroke-width: 1;" fill="#a80036" points="67.459,892.75 71.7145,883.868 67.6019,887.752 63.7178,883.639 67.459,892.75" /><!--link 7,0,0 to 8,0,0--><path id="7,0,0-8,0,0" style="stroke: #a80036; stroke-width: 1;" fill="none" d="M 197.599 628.06 C 196.346 638.26 196.164 651.45 197.054 662.51" /><polygon style="stroke: #a80036; stroke-width: 1;" fill="#a80036" points="197.576,667.75 200.656,658.395 197.076,662.775 192.696,659.195 197.576,667.75" /><!--link 8,0,0 to 7,0,0--><path id="8,0,0-7,0,0" style="stroke: #a80036; stroke-width: 1;" fill="none" d="M 210.424 667.75 C 211.663 657.52 211.832 644.32 210.93 633.29" /><polygon style="stroke: #a80036; stroke-width: 1;" fill="#a80036" points="210.401,628.06 207.348,637.424 210.915,633.034 215.305,636.601 210.401,628.06" /><!--link 6,0,1 to 5,0,1--><path id="6,0,1-5,0,1" style="stroke: #a80036; stroke-width: 1;" fill="none" d="M 124.973 628.06 C 117.37 638.54 107.474 652.17 99.3116 663.41" /><polygon style="stroke: #a80036; stroke-width: 1;" fill="#a80036" points="96.1624,667.75 104.691,662.825 99.1035,663.706 98.2215,658.119 96.1624,667.75" /><!--link 5,0,3 to 5,0,4--><path id="5,0,3-5,0,4" style="stroke: #a80036; stroke-width: 1;" fill="none" d="M 153.177 1453.06 C 155.15 1463.35 157.707 1476.69 159.841 1487.81" /><polygon style="stroke: #a80036; stroke-width: 1;" fill="#a80036" points="160.787,1492.75 163.018,1483.16 159.844,1487.84 155.161,1484.67 160.787,1492.75" /><!--link 5,0,3 to 4,0,3--><path id="5,0,3-4,0,3" style="stroke: #a80036; stroke-width: 1;" fill="none" d="M 143.814 1453.23 C 139.737 1464.43 134.365 1479.54 130 1493 C 122.295 1516.76 114.297 1544.28 109.026 1562.89" /><polygon style="stroke: #a80036; stroke-width: 1;" fill="#a80036" points="107.614,1567.89 113.907,1560.31 108.971,1563.08 106.207,1558.14 107.614,1567.89" /><!--link 3,0,1 to 2,0,1--><path id="3,0,1-2,0,1" style="stroke: #a80036; stroke-width: 1;" fill="none" d="M 66.0923 928.06 C 65.5337 938.26 64.8111 951.45 64.2049 962.51" /><polygon style="stroke: #a80036; stroke-width: 1;" fill="#a80036" points="63.9179,967.75 68.4006,958.98 64.1893,962.757 60.4124,958.546 63.9179,967.75" /><!--link 8,0,0 to 9,0,0--><path id="8,0,0-9,0,0" style="stroke: #a80036; stroke-width: 1;" fill="none" d="M 197.599 703.06 C 196.346 713.26 196.164 726.45 197.054 737.51" /><polygon style="stroke: #a80036; stroke-width: 1;" fill="#a80036" points="197.576,742.75 200.656,733.395 197.076,737.775 192.696,734.195 197.576,742.75" /><!--link 9,0,0 to 8,0,0--><path id="9,0,0-8,0,0" style="stroke: #a80036; stroke-width: 1;" fill="none" d="M 210.424 742.75 C 211.663 732.52 211.832 719.32 210.93 708.29" /><polygon style="stroke: #a80036; stroke-width: 1;" fill="#a80036" points="210.401,703.06 207.348,712.424 210.915,708.034 215.305,711.601 210.401,703.06" /><!--link 5,0,4 to 5,0,5--><path id="5,0,4-5,0,5" style="stroke: #a80036; stroke-width: 1;" fill="none" d="M 165.361 1528.06 C 166.199 1538.26 167.283 1551.45 168.193 1562.51" /><polygon style="stroke: #a80036; stroke-width: 1;" fill="#a80036" points="168.623,1567.75 171.864,1558.45 168.209,1562.77 163.891,1559.11 168.623,1567.75" /><!--link 4,0,3 to 3,0,3--><path id="4,0,3-3,0,3" style="stroke: #a80036; stroke-width: 1;" fill="none" d="M 103 1603.06 C 103 1613.26 103 1626.45 103 1637.51" /><polygon style="stroke: #a80036; stroke-width: 1;" fill="#a80036" points="103,1642.75 107,1633.75 103,1637.75 99,1633.75 103,1642.75" /><!--link 2,0,1 to 1,0,1--><path id="2,0,1-1,0,1" style="stroke: #a80036; stroke-width: 1;" fill="none" d="M 62.7731 1003.06 C 62.6334 1013.26 62.4528 1026.45 62.3012 1037.51" /><polygon style="stroke: #a80036; stroke-width: 1;" fill="#a80036" points="62.2295,1042.75 66.3577,1033.81 62.3009,1037.75 58.3585,1033.69 62.2295,1042.75" /><!--link 9,0,0 to 10,0,0--><path id="9,0,0-10,0,0" style="stroke: #a80036; stroke-width: 1;" fill="none" d="M 197.599 778.06 C 196.346 788.26 196.164 801.45 197.054 812.51" /><polygon style="stroke: #a80036; stroke-width: 1;" fill="#a80036" points="197.576,817.75 200.656,808.395 197.076,812.775 192.696,809.195 197.576,817.75" /><!--link 10,0,0 to 9,0,0--><path id="10,0,0-9,0,0" style="stroke: #a80036; stroke-width: 1;" fill="none" d="M 210.424 817.75 C 211.663 807.52 211.832 794.32 210.93 783.29" /><polygon style="stroke: #a80036; stroke-width: 1;" fill="#a80036" points="210.401,778.06 207.348,787.424 210.915,783.034 215.305,786.601 210.401,778.06" /><!--link 5,0,5 to 4,0,5--><path id="5,0,5-4,0,5" style="stroke: #a80036; stroke-width: 1;" fill="none" d="M 170 1603.06 C 170 1613.26 170 1626.45 170 1637.51" /><polygon style="stroke: #a80036; stroke-width: 1;" fill="#a80036" points="170,1642.75 174,1633.75 170,1637.75 166,1633.75 170,1642.75" /><!--link 3,0,3 to 2,0,3--><path id="3,0,3-2,0,3" style="stroke: #a80036; stroke-width: 1;" fill="none" d="M 103 1678.06 C 103 1688.26 103 1701.45 103 1712.51" /><polygon style="stroke: #a80036; stroke-width: 1;" fill="#a80036" points="103,1717.75 107,1708.75 103,1712.75 99,1708.75 103,1717.75" /><!--link 1,0,1 to 0,0,1--><path id="1,0,1-0,0,1" style="stroke: #a80036; stroke-width: 1;" fill="none" d="M 59.3667 1078.32 C 55.3112 1105.73 48 1161.75 48 1209.5 C 48 1209.5 48 1209.5 48 2411.5 C 48 2458.77 71.5438 2510.13 86.6381 2538.2" /><polygon style="stroke: #a80036; stroke-width: 1;" fill="#a80036" points="89.1667,2542.83 88.3656,2533.01 86.7711,2538.44 81.3436,2536.85 89.1667,2542.83" /><!--link 10,0,0 to 10,0,1--><path id="10,0,0-10,0,1" style="stroke: #a80036; stroke-width: 1;" fill="none" d="M 202.639 853.06 C 201.801 863.26 200.717 876.45 199.807 887.51" /><polygon style="stroke: #a80036; stroke-width: 1;" fill="#a80036" points="199.377,892.75 204.109,884.112 199.791,887.767 196.136,883.45 199.377,892.75" /><!--link 4,0,5 to 3,0,5--><path id="4,0,5-3,0,5" style="stroke: #a80036; stroke-width: 1;" fill="none" d="M 170 1678.06 C 170 1688.26 170 1701.45 170 1712.51" /><polygon style="stroke: #a80036; stroke-width: 1;" fill="#a80036" points="170,1717.75 174,1708.75 170,1712.75 166,1708.75 170,1717.75" /><!--link 2,0,3 to 1,0,3--><path id="2,0,3-1,0,3" style="stroke: #a80036; stroke-width: 1;" fill="none" d="M 103 1753.06 C 103 1763.26 103 1776.45 103 1787.51" /><polygon style="stroke: #a80036; stroke-width: 1;" fill="#a80036" points="103,1792.75 107,1783.75 103,1787.75 99,1783.75 103,1792.75" /><!--link 10,0,1 to 10,0,2--><path id="10,0,1-10,0,2" style="stroke: #a80036; stroke-width: 1;" fill="none" d="M 197.319 928.06 C 196.9 938.26 196.358 951.45 195.904 962.51" /><polygon style="stroke: #a80036; stroke-width: 1;" fill="#a80036" points="195.688,967.75 200.045,958.917 195.888,962.754 192.051,958.597 195.688,967.75" /><!--link 3,0,5 to 2,0,5--><path id="3,0,5-2,0,5" style="stroke: #a80036; stroke-width: 1;" fill="none" d="M 170 1753.06 C 170 1763.26 170 1776.45 170 1787.51" /><polygon style="stroke: #a80036; stroke-width: 1;" fill="#a80036" points="170,1792.75 174,1783.75 170,1787.75 166,1783.75 170,1792.75" /><!--link 1,0,3 to 0,0,3--><path id="1,0,3-0,0,3" style="stroke: #a80036; stroke-width: 1;" fill="none" d="M 100.555 1828.33 C 96.789 1855.74 90 1911.78 90 1959.5 C 90 1959.5 90 1959.5 90 2111.5 C 90 2159.44 116.704 2210.46 133.873 2238.31" /><polygon style="stroke: #a80036; stroke-width: 1;" fill="#a80036" points="136.541,2242.58 135.161,2232.83 133.89,2238.34 128.378,2237.07 136.541,2242.58" /><!--link 10,0,2 to 9,0,2--><path id="10,0,2-9,0,2" style="stroke: #a80036; stroke-width: 1;" fill="none" d="M 195 1003.06 C 195 1013.26 195 1026.45 195 1037.51" /><polygon style="stroke: #a80036; stroke-width: 1;" fill="#a80036" points="195,1042.75 199,1033.75 195,1037.75 191,1033.75 195,1042.75" /><!--link 2,0,5 to 1,0,5--><path id="2,0,5-1,0,5" style="stroke: #a80036; stroke-width: 1;" fill="none" d="M 167.05 1828.06 C 165.218 1838.35 162.843 1851.69 160.862 1862.81" /><polygon style="stroke: #a80036; stroke-width: 1;" fill="#a80036" points="159.983,1867.75 165.497,1859.59 160.859,1862.83 157.621,1858.19 159.983,1867.75" /><!--link 9,0,2 to 8,0,2--><path id="9,0,2-8,0,2" style="stroke: #a80036; stroke-width: 1;" fill="none" d="M 195 1078.06 C 195 1088.26 195 1101.45 195 1112.51" /><polygon style="stroke: #a80036; stroke-width: 1;" fill="#a80036" points="195,1117.75 199,1108.75 195,1112.75 191,1108.75 195,1117.75" /><!--link 1,0,5 to 1,0,4--><path id="1,0,5-1,0,4" style="stroke: #a80036; stroke-width: 1;" fill="none" d="M 147.876 1903.06 C 144.947 1913.26 142.598 1926.45 141.668 1937.51" /><polygon style="stroke: #a80036; stroke-width: 1;" fill="#a80036" points="141.33,1942.75 145.9,1934.02 141.651,1937.76 137.917,1933.51 141.33,1942.75" /><!--link 1,0,4 to 1,0,5--><path id="1,0,4-1,0,5" style="stroke: #a80036; stroke-width: 1;" fill="none" d="M 154.177 1942.75 C 157.099 1932.52 159.436 1919.32 160.348 1908.29" /><polygon style="stroke: #a80036; stroke-width: 1;" fill="#a80036" points="160.678,1903.06 156.12,1911.8 160.364,1908.06 164.104,1912.3 160.678,1903.06" /><!--link 1,0,5 to 0,0,5--><path id="1,0,5-0,0,5" style="stroke: #a80036; stroke-width: 1;" fill="none" d="M 169.48 1903.06 C 177.44 1913.63 187.823 1927.41 196.335 1938.71" /><polygon style="stroke: #a80036; stroke-width: 1;" fill="#a80036" points="199.379,1942.75 197.159,1933.15 196.371,1938.75 190.769,1937.97 199.379,1942.75" /><!--link 8,0,2 to 7,0,2--><path id="8,0,2-7,0,2" style="stroke: #a80036; stroke-width: 1;" fill="none" d="M 194.773 1153.06 C 194.633 1163.26 194.453 1176.45 194.301 1187.51" /><polygon style="stroke: #a80036; stroke-width: 1;" fill="#a80036" points="194.229,1192.75 198.357,1183.81 194.3,1187.75 190.358,1183.69 194.229,1192.75" /><!--link 0,0,5 to 0,0,4--><path id="0,0,5-0,0,4" style="stroke: #a80036; stroke-width: 1;" fill="none" d="M 209.958 1978.06 C 208.701 1988.26 207.075 2001.45 205.711 2012.51" /><polygon style="stroke: #a80036; stroke-width: 1;" fill="#a80036" points="205.065,2017.75 210.138,2009.31 205.678,2012.79 202.198,2008.33 205.065,2017.75" /><!--link 7,0,2 to 6,0,2--><path id="7,0,2-6,0,2" style="stroke: #a80036; stroke-width: 1;" fill="none" d="M 193.773 1228.06 C 193.633 1238.26 193.453 1251.45 193.301 1262.51" /><polygon style="stroke: #a80036; stroke-width: 1;" fill="#a80036" points="193.229,1267.75 197.357,1258.81 193.3,1262.75 189.358,1258.69 193.229,1267.75" /><!--link 6,0,2 to 5,0,2--><path id="6,0,2-5,0,2" style="stroke: #a80036; stroke-width: 1;" fill="none" d="M 183.243 1303.06 C 177.074 1313.54 169.045 1327.17 162.423 1338.41" /><polygon style="stroke: #a80036; stroke-width: 1;" fill="#a80036" points="159.868,1342.75 167.887,1337.03 162.409,1338.44 160.998,1332.97 159.868,1342.75" /><!--
@startuml
(*) - -> "0,0,0"
"0,0,0" - -> "1,0,0"
"0,0,0" - -> "0,1,0"
"1,0,0" - -> "2,0,0"
"1,0,0" - -> "0,0,0"
"0,1,0" - -> "0,1,1"
"0,1,0" - -> "0,0,0"
"2,0,0" - -> "3,0,0"
"2,0,0" - -> "1,0,0"
"0,1,1" - -> "0,1,2"
"0,1,1" - -> "0,0,1"
"0,1,1" - -> "0,1,0"
"3,0,0" - -> "4,0,0"
"3,0,0" - -> "2,0,0"
"0,1,2" - -> "0,1,3"
"0,1,2" - -> "0,0,2"
"0,1,2" - -> "0,1,1"
"0,0,1" - -> "0,1,1"
"0,0,1" - -> "0,0,0"
"4,0,0" - -> "5,0,0"
"4,0,0" - -> "3,0,0"
"0,1,3" - -> "0,1,4"
"0,1,3" - -> "0,0,3"
"0,0,2" - -> "0,1,2"
"0,0,2" - -> "0,0,1"
"5,0,0" - -> "5,0,1"
"5,0,0" - -> "6,0,0"
"5,0,0" - -> "4,0,0"
"0,1,4" - -> "0,1,3"
"0,1,4" - -> "0,0,4"
"0,0,3" - -> "0,1,3"
"0,0,3" - -> "0,0,2"
"5,0,1" - -> "5,0,2"
"5,0,1" - -> "4,0,1"
"6,0,0" - -> "7,0,0"
"6,0,0" - -> "6,0,1"
"6,0,0" - -> "5,0,0"
"0,0,4" - -> "0,1,4"
"0,0,4" - -> "0,0,3"
"5,0,2" - -> "5,0,3"
"4,0,1" - -> "3,0,1"
"7,0,0" - -> "8,0,0"
"7,0,0" - -> "6,0,0"
"6,0,1" - -> "5,0,1"
"5,0,3" - -> "5,0,4"
"5,0,3" - -> "4,0,3"
"3,0,1" - -> "2,0,1"
"8,0,0" - -> "9,0,0"
"8,0,0" - -> "7,0,0"
"5,0,4" - -> "5,0,5"
"4,0,3" - -> "3,0,3"
"2,0,1" - -> "1,0,1"
"9,0,0" - -> "10,0,0"
"9,0,0" - -> "8,0,0"
"5,0,5" - -> "4,0,5"
"3,0,3" - -> "2,0,3"
"1,0,1" - -> "0,0,1"
"10,0,0" - -> "10,0,1"
"10,0,0" - -> "9,0,0"
"4,0,5" - -> "3,0,5"
"2,0,3" - -> "1,0,3"
"10,0,1" - -> "10,0,2"
"3,0,5" - -> "2,0,5"
"1,0,3" - -> "0,0,3"
"10,0,2" - -> "9,0,2"
"2,0,5" - -> "1,0,5"
"9,0,2" - -> "8,0,2"
"1,0,5" - -> "1,0,4"
"1,0,5" - -> "0,0,5"
"8,0,2" - -> "7,0,2"
"1,0,4" - -> "1,0,5"
"0,0,5" - -> "0,0,4"
"7,0,2" - -> "6,0,2"
"6,0,2" - -> "5,0,2"
@enduml

PlantUML version 1.2019.00(Sun Jan 13 10:46:42 EST 2019)
(EPL source distribution)
Java Runtime: Java(TM) SE Runtime Environment
JVM: Java HotSpot(TM) 64-Bit Server VM
Java Version: 1.8.0_221-b11
Operating System: Windows 10
OS Version: 10.0
Default Encoding: Cp1252
Language: en
Country: US
--></g></svg>